<?xml version="1.0" encoding="UTF-8"?>
<svg version="1.1" viewBox="0 0 2048 1952" width="1280" height="1280" xmlns="http://www.w3.org/2000/svg">
<path transform="translate(0)" d="m0 0h2048v1952h-2048z" fill="rgba(255,255,255,0)"/>
<path transform="translate(1242,512)" d="m0 0h18l10 4 8 6 9 13 2 5 1 11-3 20-16 78-22 111-22 109-20 100-22 108-1 2h267l9 4 9 7 7 11 2 6v17l-4 10-7 11-14 18-28 38-12 16-10 13-14 19-10 14-9 12-10 13-14 18-10 13-13 18-14 19-20 26-13 18-13 17-10 13-14 19-11 14-16 21-10 14-10 13-28 38-16 21-11 15-9 12-14 19-14 18-13 18-14 18-14 19-16 21-28 38-16 21-13 17-12 16-10 13-12 16-10 14-12 15-14 19-8 10-9 10-9 7-8 3-13 1-11-4-11-7-9-12-3-8v-15l15-74 46-230 21-106 22-110h-251l-13-2-9-4-8-6-7-8-4-9-1-11 2-11 6-12 12-16 13-17 9-12 10-13 9-12 10-14 20-26 13-18 12-16 14-18 14-19 11-14 15-20 10-14 14-18 30-40 14-19 33-44 14-19 26-34 10-14 10-13 13-17 14-19 8-11 11-14 21-28 10-13 10-14 14-19 10-13 9-12 10-13 28-38 10-13 16-21 14-19 10-13 28-38 9-11 7-7 9-5z" fill="#003366"/>
<path transform="translate(1179,710)" d="m0 0h1l-1 11-44 221-32 160-1 9v11l2 8 5 8 4 5 13 8 4 1 212 2 21 1-4 7-15 20-14 19-10 13-105 140-16 21-14 19-24 32-16 21-14 19-16 21-14 19-16 21-14 19-16 21-14 19-16 21-14 19-16 21-14 19-10 13-14 19-10 14h-2l1-14 40-200 22-111 13-64 1-10v-18l-4-10-9-10-11-5-9-2h-229l3-5 14-19 16-21 14-19 16-21 12-16 14-19 10-13 72-96 14-19 10-13 33-44 14-19 10-13 9-12 16-21 11-15 21-28 16-21 12-16 8-11 21-28 16-21 14-19 18-24z" fill="#ffffff"/>
<path transform="translate(410,474)" d="m0 0h18l12 5 9 8 11 15 10 16 11 17 24 38 28 44 16 25 12 19 14 22 11 17 10 16 13 20 11 18 10 15 13 21 11 17 12 19 16 25 14 22 12 19 9 15 5 11 1 4v10l-4 11-8 11-8 7-10 4-16 2-104 1-2 155-2 9-8 10-7 6-12 6h-16l-10-4-8-6-8-9-4-9-1-5v-197l2-10 6-10 8-8 9-5 9-2 38-1h47l-8-12-11-17-30-48-14-21-15-24-9-14-12-19-9-14-13-20-12-19-14-22-13-20-15-24-12-19-6-9h-2l-10 16-10 15-11 18-15 24-15 23-15 24-15 23-12 20-17 26-12 19-13 20-12 19-14 22-12 19-9 14 86 1 12 4 10 8 7 11 2 4v398l-6 12-9 10-8 5-11 3h-7l-10-3-10-6-8-8-5-10-2-10v-339l-103-1-19-2-12-6-9-8-6-10-2-8 1-14 5-12 8-14 10-15 13-20 13-21 14-22 13-20 11-18 10-15 12-19 21-33 9-14 14-22 12-19 13-20 10-16 9-14 10-16 10-15 11-18 13-20 10-16 13-20 9-13 10-9z" fill="#003366"/>
<path transform="translate(1619,474)" d="m0 0h19l10 4 10 9 9 11 18 27 11 18 8 11 9 14 29 43 7 11 29 43 7 11 25 37 17 25 42 63 13 20 10 17 3 9v10l-5 12-8 10-7 6-9 4-14 2h-72v308l-4 11-7 9-9 7-11 4h-13l-10-4-8-6-8-8-4-8-2-7v-348l2-10 3-6 8-10 9-6 5-2 11-1 33-1 7-1-7-12-10-14-30-45-29-44-29-43-29-44-18-27-2-1-2 5-7 11-8 11-29 44-29 43-34 51-29 44-12 18-3 6 14-3 24 1 11 1 13 5 6 5 10 15 1 3v126l-2 10-5 9-5 6-10 7-8 3h-17l-10-4-8-6-8-11-3-7-1-9v-74l-59-1-19-1-9-2-10-6-5-5-7-8-4-9v-15l5-12 9-15 21-31 28-42 29-44 29-43 100-150 9-13 7-9 8-7z" fill="#003366"/>
<path transform="translate(865,96)" d="m0 0h15l11 4 9 7 9 10 34 51 29 44 29 43 29 44 29 43 29 44 27 40 10 15 8 13 4 8 2 7v10l-4 11-6 9-9 8-8 4-8 2h-78l-1 80-4 11-7 9-9 8-9 4-3 1h-13l-14-7-10-9-5-8-2-7v-129l4-11 11-12 9-5 5-2h50l-9-14-20-30-27-40-12-18-21-32-64-96-3 1-10 15-29 43-21 32-60 90-29 43-4 6 34-1 14 1 12 4 12 11 6 10 1 4v25l-1 84v35l1 100v29l-2 12-6 12-8 8-12 6-4 1h-11l-10-3-13-9-7-10-3-8v-234h-79l-10-3-11-7-9-10-5-12v-11l5-15 14-21 9-13 25-38 168-252 10-14 7-9 8-7 8-4z" fill="#003366"/>
</svg>
