<?xml version="1.0" encoding="UTF-8"?>
<svg version="1.1" viewBox="0 0 2090 1934" width="1280" height="1280" xmlns="http://www.w3.org/2000/svg">
<g transform="rotate(45 1015 945)">
<path transform="translate(0)" d="m0 0h2048v1934h-2048z" fill="rgba(255,255,255,0)"/>
<path transform="translate(1495,55)" d="m0 0h64l17 2 12 2 21 6 28 11 16 8 19 10 18 12 16 13 14 12 12 12 7 8 13 17 10 15 12 21 9 19 8 22 6 24 5 30 2 19v24l-3 25-5 26-6 21-8 21-12 25-8 14-9 13-9 12-11 12-26 26-14 11-10 7-13 8-26 14-25 10-24 7-27 6-25 3h-22l-28-3-30-7-34-10-6-2-5 1-11 13-9 11-13 16-11 14-13 16-10 13-9 11-8 10-10 13-11 14-6 8v3l8 7 12 12 9 11 11 13 14 20 14 24 8 15 10 23 9 25 7 26 3 14 3 26 1 23v14l-1 20-4 29-6 28-6 20-6 17-9 20-10 20-10 17-14 20-13 16-15 16-19 19-11 9-14 11v3l7 10 15 26 34 56 8 13v2l15-3 32-7 29-3h27l16 2 14 1 31 6 18 5 14 6 24 11 24 13 12 8 19 14 11 10 8 7 18 18 11 14 11 15 12 20 12 23 10 25 9 30 4 19 3 26v44l-2 11-2 17-6 26-6 19-6 17-13 27-8 14-10 15-11 14-11 13-7 8-16 16-9 7-17 13-17 11-22 12-22 10-23 8-5 2-12 3-12 2-2 1-17 2-2 1-9 1h-53l-27-4-15-3-5-2-12-3-20-7-23-10-19-10-17-11-16-12-13-11-8-7-22-22-11-14-11-15-15-25-12-25-9-25-6-22-3-15-3-25v-44l4-32 5-24 9-27 11-25 12-23 14-21 11-14 8-9 7-8 18-18 10-8 17-14 3-2-2-5-15-24-19-32-17-29-10-16-7 1-17 6-17 5-28 5-25 4h-43l-31-3-26-5-26-7-27-10-23-10-19-10-19-12-16-12-16-13-12-11-9-8-7-8-11-12-12-16-11-15-11-18-12-23-10-25-8-24-7-30-5-38h-29l-86 1-3 9-9 33-9 25-11 23-11 18-14 19-12 14-12 13-14 13-19 14-14 9-24 13-17 8-33 11-32 7-16 2h-50l-22-4-28-7-23-8-20-9-20-11-11-7-17-12-10-9-8-7-13-12-11-12-15-20-10-15-11-19-11-26-8-25-6-29-2-17v-43l3-27 6-26 10-30 14-29 8-14 8-12 12-16 11-12 9-10 9-9 11-9 16-12 15-10 21-12 23-10 25-8 25-6 19-3h56l26 4 16 4 16 5 26 10 16 8 16 9 16 11 12 9 11 9 14 13 7 8 9 10 10 13 10 15 11 19 11 23 11 33 7 29h119l3-7 7-26 9-26 11-24 12-23 12-19 14-19 13-15 12-13 10-10 11-9 13-11 18-13 26-15 19-10 26-10 21-7 26-6 27-5 29-3h21l42 4 36 9 36 12 29 13h2l7-8 11-14 8-10 11-14 13-16 9-11 22-28 12-15 10-13 7-9-1-5-28-28-15-20-10-15-8-14-8-16-8-19-6-18-6-27-3-19v-40l3-30 5-25 6-20 6-16 9-20 10-18 12-18 9-12 18-22 8-7 14-12 17-13 19-12 25-13 24-10 19-6 28-6z" fill="#003366"/>
<path transform="translate(1082,718)" d="m0 0h11l29 3h6l5-2 1 4 17 4 20 6 19 8 24 14 16 10 16 13 10 9 13 13 9 11 10 13 9 14 11 19 11 26 7 22 5 24 2 13v52l-5 32-6 22-6 17-8 18-11 19-12 18-11 14-7 7-2 3h-2l-1 3-8 7-10 9-15 11-19 12-30 16-21 8-24 6-26 4-10 1h-30l-18-2-35-8-30-10-20-9-21-12-14-10-16-13-7-6-7-8-11-12-13-17-7-10-11-19-11-24-7-18-6-24-4-26v-46l3-23 6-25 7-20 8-18 12-23 12-17 8-10 11-12 10-9 8-8 11-9 17-13 15-9 15-8 25-10 18-5 28-6 21-3z" fill="#ffffff"/>
<path transform="translate(1405,1418)" d="m0 0h43l31 4 21 6 22 8 19 10 16 11 13 10 10 9 10 10 11 14 10 14 10 17 10 23 6 18 5 22 2 16v42l-1 8-1 1-5 26-8 24-11 23-12 19-11 14-9 10-12 12-14 11-15 10-12 7-24 11-19 6-23 5-25 3h-21l-23-3-25-6-15-5-26-11-17-10-12-9-10-8-10-9-11-12-11-14-10-15-9-15-10-25-5-17-5-22-1-14v-36l3-22 3-15 5-17 8-18 11-20 12-18 12-14 18-18 14-11 15-10 18-10 19-8 18-6 23-5z" fill="#ffffff"/>
<path transform="translate(1515,134)" d="m0 0h21l29 3 26 6 19 8 25 13 11 8 13 11 8 7 13 14 13 19 9 16 7 15 8 24 4 19 2 16v28l-3 24-5 19-10 25-9 17-10 15-9 11-11 12-8 7-11 10-18 12-16 9-21 8-26 7-23 3h-28l-26-4-22-6-15-6-28-13-10-8-13-10-18-18-10-13-9-15-11-19-8-21-7-35v-50l6-27 9-27 8-16 6-10 10-14 18-20 12-11 18-13 22-12 17-7 30-8z" fill="#ffffff"/>
<path transform="translate(343,758)" d="m0 0h43l26 5 27 9 24 12 13 9 13 10 19 19 13 17 8 13 9 17 9 24 6 23 2 16v36l-3 19-7 28-7 19-9 17-9 13-11 13-7 8-11 11-20 15-19 11-18 8-27 7-20 4-8 1h-36l-26-5-23-7-17-7-18-10-13-9-13-12-4-3v-2l-3-1-7-8-8-9-11-15-12-23-6-14-7-23-3-17-2-18v-22l3-24 6-22 6-16 11-23 11-16 8-10 11-12 10-10 14-11 10-7 18-10 20-8 22-6z" fill="#ffffff"/>
<path transform="translate(689,1160)" d="m0 0 6 1 37 19 22 12 5 5-1 8-6 14-6 21-5 25v25l4 24 4 17 6 17 10 21 10 14 13 16 12 12 17 12 21 12 23 9 16 4 9 1 5 2 6 1h35l27-5 23-8 20-10 19-13 15-13 9-9 12-16 8-12 2-2 6 1 14 7 19 10 24 13 7 5-8 16-12 17-9 11-14 15-15 15-19 14-14 9-22 12-21 9-25 8-22 5-20 3-20 1h-23l-13-2-16-3-32-9-21-8-24-12-17-11-19-14-13-12-8-7-13-14-13-17-12-19-9-16-10-25-7-21-5-24-1-7-2-38 1-4 2-32 7-30 6-18 12-27z" fill="#003366"/>
<path transform="translate(1447,722)" d="m0 0 7 1 19 2 27 6 21 7 27 12 16 9 18 12 10 8 13 11 10 9 11 12 13 17 10 15 10 18 10 21 11 33 4 19 2 22v41l-3 24-6 25-9 27-12 26-12 20-13 17-12 14-11 12-15 13-15 11-16 10-27 14-26 10-21 6-23 4-8 1h-39l-1-1 2-46 2-31 6-2 34-4 22-5 18-6 16-8 14-8 12-9 12-11 9-9 11-15 11-19 6-13 5-16 6-29 1-7v-27l-5-30-7-23-8-17-11-18-11-14-9-10-8-8-11-8-18-11-14-7-24-8-36-8 1-52 1-21z" fill="#003366"/>
<path transform="translate(910,404)" d="m0 0h35l24 3 23 5 20 6 19 8 22 11 19 12 20 16 32 32 14 19 13 22 8 15 1 5-16 8-25 11-24 11-8 2-4-5-10-18-12-17-11-13-9-9-12-9-19-12-16-8-9-4-30-7-26-2h-20l-18 3-25 7-24 11-16 10-10 8-10 9-10 10-12 16-9 15-10 22-6 20-3 13v47l4 23 7 24-1 5-15 8-30 13-22 9-7 1-9-27-4-15-5-31-2-23 1-28 4-26 7-27 8-22 12-25 12-20 13-17 9-10 14-16h2l1-3 11-9 16-12 14-9 16-9 15-7 22-8 21-6 22-4z" fill="#003366"/>
</g>
</svg>
